<?xml version="1.0" encoding="UTF-8" ?>
<!DOCTYPE svg PUBLIC "-//W3C//DTD SVG 1.1//EN" "http://www.w3.org/Graphics/SVG/1.1/DTD/svg11.dtd">
<svg width="125pt" height="120pt" viewBox="0 0 125 120" version="1.1" xmlns="http://www.w3.org/2000/svg">
<path fill="#003580" d=" M 0.00 0.00 L 125.00 0.00 L 125.00 120.00 L 0.00 120.00 L 0.00 0.00 Z" />
<path fill="#ffffff" d=" M 30.31 43.33 C 33.53 39.61 39.07 39.33 43.50 40.59 C 48.91 42.58 51.79 48.38 51.92 53.89 C 52.04 60.39 52.67 67.44 49.17 73.26 C 45.54 79.99 34.28 81.48 29.80 74.90 C 28.51 73.21 28.23 71.04 27.80 69.03 C 29.57 69.01 31.34 69.00 33.11 69.01 C 33.76 74.89 42.27 75.38 44.82 70.69 C 46.26 67.41 46.61 63.82 47.18 60.33 C 45.35 61.99 43.65 64.00 41.18 64.70 C 39.02 65.19 36.78 64.92 34.58 64.87 C 31.33 63.06 28.04 60.45 27.24 56.61 C 26.64 52.06 26.60 46.65 30.31 43.33 Z" />
<path fill="#ffffff" d=" M 76.54 43.45 C 80.41 39.87 86.17 39.01 91.07 40.77 C 94.77 42.29 96.73 46.18 97.22 49.97 C 95.47 49.99 93.73 49.99 91.99 49.98 C 90.86 46.75 87.89 44.95 84.54 44.85 C 78.27 46.24 77.57 53.45 76.83 58.71 C 79.27 56.25 82.19 53.61 85.96 53.98 C 91.23 53.30 96.20 57.24 97.67 62.15 C 98.41 66.17 98.28 70.64 95.78 74.07 C 90.91 81.86 77.40 80.30 73.84 72.02 C 71.43 67.04 71.99 61.34 72.08 55.97 C 72.09 51.42 73.78 47.04 76.54 43.45 Z" />
<path fill="#003580" d=" M 32.52 55.21 C 30.28 49.93 35.88 43.36 41.48 45.33 C 47.84 46.44 48.56 55.51 43.81 59.04 C 39.85 60.78 33.77 60.04 32.52 55.21 Z" />
<path fill="#003580" d=" M 78.70 61.71 C 81.93 58.68 87.53 57.96 90.92 61.11 C 93.43 63.70 93.27 67.60 91.95 70.73 C 91.21 71.47 90.47 72.21 89.73 72.96 C 87.50 73.53 85.16 74.57 82.90 73.52 C 77.96 72.42 75.19 65.63 78.70 61.71 Z" />
<path fill="#ffffff" d=" M 60.00 74.00 C 61.67 74.00 63.33 74.00 65.00 74.00 C 64.85 78.52 66.28 85.08 60.87 87.12 C 60.60 86.60 60.06 85.56 59.79 85.05 C 60.52 84.27 61.26 83.50 62.00 82.72 C 62.11 81.49 62.22 80.26 62.32 79.04 C 61.74 79.02 60.58 78.99 60.00 78.98 C 60.00 77.32 60.00 75.66 60.00 74.00 Z" />
</svg>
